<svg xmlns="http://www.w3.org/2000/svg" xmlns:xlink="http://www.w3.org/1999/xlink" width="374" zoomAndPan="magnify" viewBox="0 0 280.5 293.25" height="391" preserveAspectRatio="xMidYMid meet" version="1.0"><defs><g/><clipPath id="7b5a1852b9"><path d="M 0.109375 24 L 279.894531 24 L 279.894531 268 L 0.109375 268 Z M 0.109375 24 " clip-rule="nonzero"/></clipPath><clipPath id="f0ec8315ab"><path d="M 0.109375 1.035156 L 279.894531 1.035156 L 279.894531 243.28125 L 0.109375 243.28125 Z M 0.109375 1.035156 " clip-rule="nonzero"/></clipPath><clipPath id="86df5ac616"><path d="M 279.835938 122.15625 L 209.90625 243.28125 L 70.039062 243.28125 L 0.109375 122.15625 L 70.039062 1.035156 L 209.898438 1.035156 Z M 279.835938 122.15625 " clip-rule="nonzero"/></clipPath><clipPath id="875a6ca2f3"><path d="M 0.109375 0.0351562 L 279.894531 0.0351562 L 279.894531 242.28125 L 0.109375 242.28125 Z M 0.109375 0.0351562 " clip-rule="nonzero"/></clipPath><clipPath id="0cae96bdc1"><path d="M 279.835938 121.15625 L 209.90625 242.28125 L 70.039062 242.28125 L 0.109375 121.15625 L 70.039062 0.0351562 L 209.898438 0.0351562 Z M 279.835938 121.15625 " clip-rule="nonzero"/></clipPath><clipPath id="45d2b220df"><rect x="0" width="280" y="0" height="243"/></clipPath><clipPath id="3c7bb6a7b6"><rect x="0" width="93" y="0" height="176"/></clipPath><clipPath id="305d8e6090"><rect x="0" width="280" y="0" height="244"/></clipPath></defs><g clip-path="url(#7b5a1852b9)"><g transform="matrix(1, 0, 0, 1, -0.000000000000000014, 24)"><g clip-path="url(#305d8e6090)"><g clip-path="url(#f0ec8315ab)"><g clip-path="url(#86df5ac616)"><g transform="matrix(1, 0, 0, 1, -0.000000000000000014, 1)"><g clip-path="url(#45d2b220df)"><g clip-path="url(#875a6ca2f3)"><g clip-path="url(#0cae96bdc1)"><path fill="#00a181" d="M 0.109375 0.0351562 L 280.203125 0.0351562 L 280.203125 242.28125 L 0.109375 242.28125 Z M 0.109375 0.0351562 " fill-opacity="1" fill-rule="nonzero"/></g></g></g></g></g></g><g transform="matrix(1, 0, 0, 1, 94, 34)"><g clip-path="url(#3c7bb6a7b6)"><g fill="#f4f4f4" fill-opacity="1"><g transform="translate(0.91232, 136.524226)"><g><path d="M 63.375 -53.59375 C 70.09375 -52.320312 75.566406 -49.835938 79.796875 -46.140625 C 84.035156 -42.441406 86.15625 -36.894531 86.15625 -29.5 C 86.15625 -18.6875 82.285156 -11.066406 74.546875 -6.640625 C 66.804688 -2.210938 55.972656 0 42.046875 0 L 9.484375 0 L 9.484375 -101.1875 L 38.109375 -101.1875 C 52.316406 -101.1875 63.171875 -99.164062 70.671875 -95.125 C 78.171875 -91.082031 81.921875 -84.488281 81.921875 -75.34375 C 81.921875 -69.40625 80.140625 -64.609375 76.578125 -60.953125 C 73.023438 -57.304688 68.625 -54.851562 63.375 -53.59375 Z M 33.4375 -84.25 L 33.4375 -60.75 L 42.34375 -60.75 C 52.46875 -60.75 57.53125 -64.835938 57.53125 -73.015625 C 57.53125 -77.097656 56.164062 -79.988281 53.4375 -81.6875 C 50.71875 -83.394531 46.390625 -84.25 40.453125 -84.25 Z M 42.203125 -17.375 C 48.523438 -17.375 53.316406 -18.320312 56.578125 -20.21875 C 59.835938 -22.125 61.46875 -25.65625 61.46875 -30.8125 C 61.46875 -40.15625 55.628906 -44.828125 43.953125 -44.828125 L 33.4375 -44.828125 L 33.4375 -17.375 Z M 42.203125 -17.375 "/></g></g></g></g></g></g></g></g></svg>